<?xml version="1.0" encoding="UTF-8"?>
<svg id="Layer_1" data-name="Layer 1" xmlns="http://www.w3.org/2000/svg" viewBox="0 0 1080 1080">
  <defs>
    <style>
      .cls-1 {
        fill: #91b1a2;
      }
    </style>
  </defs>
  <path class="cls-1" d="M226.29,888.3C69.82,728.6-23.01,466.38,141.85,277.9,273.35,127.56,589.66-23.41,780.3,82.92c201.93,112.62,231.74,469.12,182.97,670.2-89.72,369.96-499.54,377.56-736.98,135.19ZM872.76,430.44c.63-5.56.65-11.44.48-17.42-.48-16.55-16.36-28.37-32.18-23.47-100.48,31.14-208.92,81.31-230.63,194.22-1.58,8.21.88,23.4-1.65,27.85-.18.32-.53.71-1.03,1.17-15.77,14.71-41.59,1.39-40.75-20.15,2-51.28,3.25-102.73,9.85-153.35.26-2.01.65-4.04,1.37-5.94,8.16-21.61,34.76-35.36,50.41-53.11,44.96-51,68.74-122.59,55.44-189.71-2.52-12.74-14.7-21.84-27.53-19.81-84,13.27-154.92,108.42-131.23,191.52,5.7,20.01,18.95,37.68,18.06,61.65l-3.24,41.43c-1.87,23.97-33.51,31.77-46,11.23-14.74-24.24-19.86-56.46-34.15-80.14-29.99-49.67-99.83-69.31-158.93-76.06-16.55-1.89-30.2,12.33-27.69,28.8,10.3,67.62,43.24,143.84,116.61,151.95,42.01,4.65,64.2-13.24,106.38,11.38,52.54,30.68,39.79,51.99,40.58,107.64,0,.65,0,1.35-.06,2l-4.55,58.79c-1.27,16.48-17.99,27.19-33.49,21.45-10.76-3.99-21.04-8.8-28.01-15.36-16.27-15.31-32.72-65.86-50.36-88.21-43.63-55.29-119.38-38.78-179.94-41.74-11.52-.56-24.72-5.06-36.16-5.47-2.85-.1-4.18-5.04-3.58,3.59,3.33,48.06,35.35,112.47,77.31,137.53,62.66,37.43,109.54,15.83,173.56,23.87,18.73,2.35,40.67,12.25,60.86,19.31,9.73,3.4,16.38,12.21,16.88,22.51,1.02,20.81,3.85,47.55-4.46,58.62-8.86,11.8-17.23,7.83-22.92,29.06-31.2,116.32,143.26,94.82,105.75-1.54-10.9-28.01-39.28-23.15-45.22-48.31-4.1-17.38-3.65-99.78,3.96-114.31,5.86-11.19,49.8-41.34,62.08-45.57,12.61-4.34,45.1,1.96,62.31.24,86.06-8.63,172.67-124.25,181.87-206.12Z"/>
</svg>