<svg preserveAspectRatio="none" width="100%" height="100%" overflow="visible" style="display: block;" viewBox="0 0 131.592 142.551" fill="none" xmlns="http://www.w3.org/2000/svg">
<path id="Vector" d="M24.2856 119.151C2.12041 96.5256 -11.0319 59.3777 12.3247 32.6764C30.9538 11.3797 75.7644 -10.0078 102.77 5.05424C131.377 21.0087 135.6 71.5129 128.691 99.9992C115.981 152.41 57.9229 153.487 24.2856 119.151ZM115.87 54.2862C115.96 53.4986 115.962 52.6656 115.938 51.8184C115.87 49.4738 113.621 47.7993 111.379 48.4935C97.1447 52.905 81.7824 60.0124 78.7068 76.008C78.483 77.1711 78.8315 79.323 78.4731 79.9534C78.4476 79.9987 78.398 80.054 78.3272 80.1192C76.0931 82.2031 72.4352 80.3161 72.5542 77.2646C72.8376 69.9999 73.0147 62.7112 73.9497 55.54C73.9865 55.2552 74.0417 54.9677 74.1437 54.6985C75.2997 51.6371 79.0681 49.6892 81.2852 47.1746C87.6545 39.9496 91.0233 29.8077 89.1392 20.299C88.7822 18.4942 87.0567 17.205 85.2391 17.4926C73.3391 19.3725 63.2921 32.8521 66.6482 44.6246C67.4557 47.4593 69.3327 49.9626 69.2067 53.3583L68.7477 59.2276C68.4827 62.6233 64.0004 63.7283 62.231 60.8185C60.1428 57.3845 59.4175 52.82 57.3931 49.4653C53.1445 42.4287 43.2505 39.6464 34.878 38.6902C32.5334 38.4224 30.5997 40.4369 30.9552 42.7702C32.4144 52.3497 37.0809 63.1475 47.475 64.2964C53.4264 64.9552 56.57 62.4207 62.5455 65.9086C69.9887 70.2549 68.1824 73.2738 68.2943 81.1576C68.2943 81.2497 68.2943 81.3488 68.2858 81.4409L67.6413 89.7695C67.4613 92.1042 65.0927 93.6214 62.8968 92.8082C61.3725 92.243 59.9162 91.5616 58.9287 90.6322C56.6238 88.4633 54.2934 81.3021 51.7944 78.1358C45.6135 70.3031 34.8822 72.642 26.3029 72.2227C24.6709 72.1433 22.8009 71.5058 21.1802 71.4477C20.7765 71.4336 20.5881 70.7337 20.6731 71.9563C21.1448 78.7648 25.681 87.8896 31.6253 91.4397C40.5022 96.7423 47.1435 93.6823 56.213 94.8213C58.8664 95.1542 61.9746 96.5567 64.8348 97.5569C66.2133 98.0386 67.1553 99.2867 67.2262 100.746C67.3707 103.694 67.7716 107.482 66.5943 109.05C65.3392 110.722 64.1534 110.16 63.3473 113.167C58.9273 129.646 83.6425 126.6 78.3286 112.949C76.7844 108.981 72.7639 109.669 71.9224 106.105C71.3416 103.643 71.4053 91.9696 72.4834 89.9112C73.3136 88.3259 79.5384 84.0547 81.2781 83.4554C83.0645 82.8406 87.6673 83.7331 90.1053 83.4894C102.297 82.2668 114.567 65.8873 115.87 54.2891V54.2862Z" fill="var(--fill-0, #1F2B26)"/>
</svg>
