<svg preserveAspectRatio="none" width="100%" height="100%" overflow="visible" style="display: block;" viewBox="0 0 105 105" fill="none" xmlns="http://www.w3.org/2000/svg">
<g id="LIGHT-GREEN-LOGO 1">
<path id="Vector" d="M16.6671 88.7699C1.45471 73.2436 -7.57043 47.7499 8.45763 29.4255C21.2423 14.8091 51.9947 0.131477 70.5292 10.4691C90.1612 21.4183 93.0594 56.078 88.3179 75.6274C79.5951 111.596 39.7515 112.335 16.6671 88.7709V88.7699ZM79.5183 44.2558C79.5796 43.7152 79.5815 43.1436 79.565 42.5622C79.5183 40.9531 77.9744 39.804 76.4364 40.2804C66.6675 43.3079 56.1247 48.1855 54.014 59.1629C53.8604 59.9611 54.0996 61.4379 53.8536 61.8705C53.8361 61.9016 53.8021 61.9395 53.7535 61.9843C52.2203 63.4144 49.71 62.1194 49.7917 60.0252C49.9861 55.0397 50.1076 50.0376 50.7493 45.1162C50.7746 44.9208 50.8125 44.7234 50.8825 44.5387C51.6758 42.4377 54.2619 41.1009 55.7835 39.3752C60.1546 34.4169 62.4665 27.4568 61.1735 20.9312C60.9285 19.6926 59.7443 18.8079 58.4969 19.0052C50.3303 20.2954 43.4353 29.5461 45.7385 37.6252C46.2926 39.5706 47.5808 41.2886 47.4943 43.619L47.1793 47.6469C46.9975 49.9773 43.9214 50.7356 42.7071 48.7387C41.274 46.382 40.7762 43.2495 39.3869 40.9473C36.4712 36.1183 29.6812 34.2088 23.9354 33.5526C22.3264 33.3688 20.9993 34.7513 21.2433 36.3526C22.2447 42.9268 25.4472 50.337 32.5804 51.1255C36.6647 51.5776 38.8221 49.8383 42.9229 52.2319C48.031 55.2147 46.7914 57.2865 46.8682 62.6969C46.8682 62.7601 46.8682 62.8281 46.8623 62.8913L46.42 68.607C46.2965 70.2093 44.671 71.2505 43.164 70.6924C42.1179 70.3045 41.1185 69.8369 40.4408 69.1991C38.859 67.7106 37.2597 62.7961 35.5447 60.6231C31.3029 55.2477 23.9383 56.8529 18.0505 56.5651C16.9305 56.5106 15.6472 56.0731 14.535 56.0333C14.2579 56.0236 14.1286 55.5433 14.1869 56.3823C14.5107 61.0548 17.6237 67.3169 21.7032 69.7533C27.7951 73.3923 32.3529 71.2923 38.5771 72.074C40.398 72.3025 42.5311 73.265 44.494 73.9513C45.44 74.2819 46.0865 75.1384 46.1351 76.1398C46.2343 78.163 46.5094 80.7627 45.7015 81.839C44.8401 82.9862 44.0264 82.6002 43.4732 84.6643C40.4398 95.9731 57.4012 93.8829 53.7544 84.5145C52.6947 81.7913 49.9355 82.2638 49.358 79.8177C48.9594 78.128 49.0032 70.1169 49.743 68.7043C50.3128 67.6163 54.5847 64.6851 55.7786 64.2738C57.0046 63.8519 60.1633 64.4644 61.8365 64.2972C70.2035 63.4581 78.6239 52.2173 79.5183 44.2577V44.2558Z" fill="var(--fill-0, #91B1A2)"/>
</g>
</svg>
